<?xml version="1.0" encoding="UTF-8"?>
<svg xmlns="http://www.w3.org/2000/svg" viewBox="0 0 75.11811 86.45669">
  <g id="Logo">
    <g>
      <path d="M24.82413,52.57589c6.35577,0,13.26892-.32634,19.09185-3.89251,6.19211-3.79248,10.35236-11.33027,10.35236-18.757h-4.42897c0,5.94278-3.31001,11.96272-8.23666,14.98015-5.40688,3.3114-12.26213,3.27136-18.8922,3.23202-.70947-.00405-1.41363-.00823-2.1104-.00823v4.42897c.68826,0,1.38364,.00405,2.08431,.00823,.70458,.00419,1.41838,.00837,2.1397,.00837Z" style="fill: #e2e3e2;"/>
      <rect x="20.60011" y="60.41784" width="29.2285" height="4.2861" style="fill: #e2e3e2;"/>
      <path d="M40.73463,21.32206v4.26575c0,10.79297-6.04199,13.00439-15.11426,13.00439h-5.0025v4.5h5.0025c4.85107,0,19.61426,0,19.61426-17.50439v-4.26575h-4.5Z" style="fill: #e2e3e2;"/>
    </g>
  </g>
  <g id="Bounding_box" data-name="Bounding box">
    <rect x="0" width="75.11811" height="86.45669" style="fill: none;"/>
  </g>
</svg>